<svg xmlns="http://www.w3.org/2000/svg" width="20" height="17.5" viewBox="0 0 20 17.5"><defs><style>.a{fill:#209b59;}</style></defs><path class="a" d="M5.833,39.188v3.125a.937.937,0,0,1-.938.937H.937A.937.937,0,0,1,0,42.313V39.188a.937.937,0,0,1,.937-.937H4.9a.937.937,0,0,1,.938.938ZM0,45.438v3.125a.937.937,0,0,0,.937.938H4.9a.937.937,0,0,0,.938-.937V45.438A.937.937,0,0,0,4.9,44.5H.937A.937.937,0,0,0,0,45.438ZM4.9,32H.937A.937.937,0,0,0,0,32.938v3.125A.937.937,0,0,0,.937,37H4.9a.937.937,0,0,0,.938-.937V32.938A.937.937,0,0,0,4.9,32ZM8.021,49.5H19.063A.937.937,0,0,0,20,48.563V45.438a.937.937,0,0,0-.937-.937H8.021a.937.937,0,0,0-.938.938v3.125A.937.937,0,0,0,8.021,49.5ZM7.083,32.938v3.125A.937.937,0,0,0,8.021,37H19.063A.937.937,0,0,0,20,36.063V32.938A.937.937,0,0,0,19.063,32H8.021a.937.937,0,0,0-.938.938ZM8.021,43.25H19.063A.937.937,0,0,0,20,42.313V39.188a.937.937,0,0,0-.937-.937H8.021a.937.937,0,0,0-.938.938v3.125A.937.937,0,0,0,8.021,43.25Z" transform="translate(0 -32)"/></svg>