<svg xmlns="http://www.w3.org/2000/svg" width="22.948" height="27.254" viewBox="0 0 22.948 27.254"><defs><style>.a{fill:#209b59;}</style></defs><path class="a" d="M58.681,10.514H55.808v-.47a3.8,3.8,0,0,0-1.548-6.788,4.419,4.419,0,0,0-7.283-2.064,3.516,3.516,0,0,0-4.118,2q-.111-.007-.224-.007a3.8,3.8,0,0,0-2.468,6.685V25.591a1.668,1.668,0,0,0,1.663,1.663H54.146a1.668,1.668,0,0,0,1.663-1.663V23.152h2.872a3.108,3.108,0,0,0,3.1-3.1v-6.43A3.107,3.107,0,0,0,58.681,10.514ZM53.552,8.684h-9.73v3.384a1.053,1.053,0,0,1-2.106,0V8.411a1.693,1.693,0,0,1,1.531-3A1.053,1.053,0,0,0,44.679,4.5a1.414,1.414,0,0,1,1.408-1.315,1.392,1.392,0,0,1,.68.175,1.053,1.053,0,0,0,1.359-.3A2.313,2.313,0,0,1,52.306,4.3a1.053,1.053,0,0,0,1.125,1c.049,0,.087,0,.121,0a1.693,1.693,0,0,1,0,3.387ZM58.9,20.048a.228.228,0,0,1-.222.222H55.808V13.4h2.872a.228.228,0,0,1,.222.222Z" transform="translate(-38.836)"/></svg>