<svg xmlns="http://www.w3.org/2000/svg" width="19.833" height="17.5" viewBox="0 0 19.833 17.5"><defs><style>.a{opacity:0.301;}.b{fill:#585858;}</style></defs><g class="a"><path class="b" d="M5.833,39.188v3.125a.937.937,0,0,1-.938.937H.937A.937.937,0,0,1,0,42.313V39.188a.937.937,0,0,1,.937-.937H4.9a.937.937,0,0,1,.938.938ZM0,45.438v3.125a.937.937,0,0,0,.937.938H4.9a.937.937,0,0,0,.938-.937V45.438A.937.937,0,0,0,4.9,44.5H.937A.937.937,0,0,0,0,45.438ZM4.9,32H.937A.937.937,0,0,0,0,32.938v3.125A.937.937,0,0,0,.937,37H4.9a.937.937,0,0,0,.938-.937V32.938A.937.937,0,0,0,4.9,32Z" transform="translate(0 -32)"/><path class="b" d="M5.833,39.188v3.125a.937.937,0,0,1-.938.937H.937A.937.937,0,0,1,0,42.313V39.188a.937.937,0,0,1,.937-.937H4.9a.937.937,0,0,1,.938.938ZM0,45.438v3.125a.937.937,0,0,0,.937.938H4.9a.937.937,0,0,0,.938-.937V45.438A.937.937,0,0,0,4.9,44.5H.937A.937.937,0,0,0,0,45.438ZM4.9,32H.937A.937.937,0,0,0,0,32.938v3.125A.937.937,0,0,0,.937,37H4.9a.937.937,0,0,0,.938-.937V32.938A.937.937,0,0,0,4.9,32Z" transform="translate(7 -32)"/><path class="b" d="M5.833,39.188v3.125a.937.937,0,0,1-.938.937H.937A.937.937,0,0,1,0,42.313V39.188a.937.937,0,0,1,.937-.937H4.9a.937.937,0,0,1,.938.938ZM0,45.438v3.125a.937.937,0,0,0,.937.938H4.9a.937.937,0,0,0,.938-.937V45.438A.937.937,0,0,0,4.9,44.5H.937A.937.937,0,0,0,0,45.438ZM4.9,32H.937A.937.937,0,0,0,0,32.938v3.125A.937.937,0,0,0,.937,37H4.9a.937.937,0,0,0,.938-.937V32.938A.937.937,0,0,0,4.9,32Z" transform="translate(14 -32)"/></g></svg>